<svg width="52" height="61" viewBox="0 0 52 61" fill="none"
    xmlns="http://www.w3.org/2000/svg">
    <path d="M13.05 34.1997C12.5594 34.1997 12.0888 34.3946 11.7419 34.7416C11.3949 35.0885 11.2 35.5591 11.2 36.0497V43.4497C11.2 43.9404 11.3949 44.4109 11.7419 44.7579C12.0888 45.1048 12.5594 45.2997 13.05 45.2997C13.5407 45.2997 14.0112 45.1048 14.3582 44.7579C14.7051 44.4109 14.9 43.9404 14.9 43.4497V42.8355H16.1321C17.2773 42.8355 18.3756 42.3806 19.1853 41.5708C19.9951 40.7611 20.45 39.6628 20.45 38.5176C20.45 37.3724 19.9951 36.2742 19.1853 35.4644C18.3756 34.6546 17.2773 34.1997 16.1321 34.1997H13.05ZM16.1321 39.1355H14.9V37.8997H16.1321C16.296 37.8997 16.4532 37.9648 16.5691 38.0807C16.6849 38.1966 16.75 38.3537 16.75 38.5176C16.75 38.6815 16.6849 38.8386 16.5691 38.9545C16.4532 39.0704 16.296 39.1355 16.1321 39.1355Z" fill="#8397AC"/>
    <path d="M33.4 36.0497C33.4 35.5591 33.5949 35.0885 33.9419 34.7416C34.2888 34.3946 34.7594 34.1997 35.25 34.1997H38.95C39.4407 34.1997 39.9112 34.3946 40.2582 34.7416C40.6051 35.0885 40.8 35.5591 40.8 36.0497C40.8 36.5404 40.6051 37.0109 40.2582 37.3579C39.9112 37.7048 39.4407 37.8997 38.95 37.8997H37.1V39.1392H38.95C39.4407 39.1392 39.9112 39.3341 40.2582 39.6811C40.6051 40.028 40.8 40.4986 40.8 40.9892C40.8 41.4799 40.6051 41.9504 40.2582 42.2974C39.9112 42.6443 39.4407 42.8392 38.95 42.8392H37.1V43.446C37.1005 43.6889 37.0531 43.9296 36.9606 44.1543C36.8681 44.3789 36.7322 44.5831 36.5608 44.7552C36.2145 45.1029 35.7444 45.2987 35.2537 45.2997C34.7631 45.3007 34.2921 45.1067 33.9445 44.7605C33.5969 44.4142 33.401 43.9441 33.4 43.4534V36.0497Z" fill="#8397AC"/>
    <path d="M24.1464 34.1997C23.6557 34.1997 23.1852 34.3946 22.8382 34.7416C22.4913 35.0885 22.2964 35.5591 22.2964 36.0497V43.4497C22.2964 43.9404 22.4913 44.4109 22.8382 44.7579C23.1852 45.1048 23.6557 45.2997 24.1464 45.2997H26.0001C27.472 45.2997 28.8837 44.715 29.9245 43.6741C30.9653 42.6333 31.5501 41.2217 31.5501 39.7497C31.5501 38.2778 30.9653 36.8661 29.9245 35.8253C28.8837 34.7844 27.472 34.1997 26.0001 34.1997H24.1501H24.1464ZM25.9964 41.5997V37.8997H26.0001C26.4907 37.8997 26.9613 38.0946 27.3082 38.4416C27.6552 38.7885 27.8501 39.2591 27.8501 39.7497C27.8501 40.2404 27.6552 40.7109 27.3082 41.0579C26.9613 41.4048 26.4907 41.5997 26.0001 41.5997H25.9964Z" fill="#8397AC"/>
    <path d="M3.79995 8.2999C3.79995 6.3373 4.57959 4.45508 5.96736 3.06731C7.35513 1.67954 9.23735 0.899902 11.2 0.899902H28.1682C29.6396 0.901198 31.0503 1.48678 32.0902 2.5279L46.5756 17.0097C47.6168 18.0495 48.2024 19.4602 48.2036 20.9317V27.1033C49.2842 27.4871 50.2194 28.1961 50.8806 29.1329C51.5418 30.0698 51.8966 31.1884 51.8962 32.3351V47.1462C51.8964 48.2933 51.541 49.4123 50.8791 50.3492C50.2172 51.2861 49.2812 51.9949 48.1999 52.378V52.6999C48.1999 54.6625 47.4203 56.5447 46.0325 57.9325C44.6448 59.3203 42.7626 60.0999 40.7999 60.0999H11.2C9.23735 60.0999 7.35513 59.3203 5.96736 57.9325C4.57959 56.5447 3.79995 54.6625 3.79995 52.6999V52.378C2.7187 51.9949 1.78274 51.2861 1.12082 50.3492C0.458897 49.4123 0.103548 48.2933 0.103655 47.1462V32.3351C0.103818 31.1875 0.459708 30.0682 1.12233 29.1313C1.78495 28.1943 2.72171 27.4858 3.80365 27.1033V8.2999H3.79995ZM44.4999 23.0999H31.55C30.078 23.0999 28.6663 22.5152 27.6255 21.4743C26.5847 20.4335 26 19.0219 26 17.5499V4.5999H11.2C10.2187 4.5999 9.27754 4.98972 8.58366 5.68361C7.88977 6.37749 7.49995 7.3186 7.49995 8.2999V26.7851H44.4999V23.0999ZM7.49995 52.6962C7.49947 53.1824 7.59481 53.6639 7.78054 54.1133C7.96626 54.5626 8.23872 54.9709 8.58235 55.3149C8.92597 55.6588 9.33402 55.9317 9.78317 56.1179C10.2323 56.3041 10.7138 56.3999 11.2 56.3999H40.7999C41.2861 56.3999 41.7676 56.3041 42.2167 56.1179C42.6659 55.9317 43.0739 55.6588 43.4176 55.3149C43.7612 54.9709 44.0336 54.5626 44.2194 54.1133C44.4051 53.6639 44.5004 53.1824 44.4999 52.6962H7.49995ZM29.6999 5.3658V17.5499C29.6999 18.0406 29.8949 18.5111 30.2418 18.858C30.5887 19.205 31.0593 19.3999 31.55 19.3999H43.734L29.6999 5.3658ZM5.65365 30.4851C5.163 30.4851 4.69245 30.68 4.34551 31.0269C3.99856 31.3739 3.80365 31.8444 3.80365 32.3351V47.1462C3.80365 47.6368 3.99856 48.1074 4.34551 48.4543C4.69245 48.8013 5.163 48.9962 5.65365 48.9962H46.3499C46.8406 48.9962 47.3112 48.8013 47.6581 48.4543C48.005 48.1074 48.1999 47.6368 48.1999 47.1462V32.3351C48.1999 31.8444 48.005 31.3739 47.6581 31.0269C47.3112 30.68 46.8406 30.4851 46.3499 30.4851H5.64995H5.65365Z" fill="#8397AC"/>
</svg>
